<svg width="87" height="58" viewBox="0 0 87 58" fill="none" xmlns="http://www.w3.org/2000/svg">
<path d="M35.9592 0.0728082C21.0324 0.867727 8.24746 21.3074 3.72085 31.4279C-0.695369 34.1513 -4.80245 42.0489 14.0989 51.8529C37.7257 64.1079 30.5493 52.8466 58.2611 51.8529C80.4305 51.058 86.3408 34.5929 86.5249 26.4597C83.9487 17.6641 76.6105 1.70681 67.8663 8.2428C59.1222 14.7788 54.2129 10.9661 52.8512 8.2428C53.4401 5.18826 50.886 -0.72211 35.9592 0.0728082Z" fill="url(#paint0_linear_1_14)"/>
<path d="M29.895 46.4431H25.8175L37.6108 14.3251H41.6255L53.4188 46.4431H49.3414L39.7436 19.4063H39.4927L29.895 46.4431ZM31.4005 33.897H47.8358V37.3472H31.4005V33.897Z" fill="#6B6B6B"/>
<path d="M62.3109 14.3251V46.4431H58.4216V14.3251H62.3109Z" fill="#6B6B6B"/>
<defs>
<linearGradient id="paint0_linear_1_14" x1="43.2624" y1="0" x2="43.2624" y2="57.5272" gradientUnits="userSpaceOnUse">
<stop stop-color="#D9FF87"/>
<stop offset="1" stop-color="#87FF8C"/>
</linearGradient>
</defs>
</svg>
